<svg xmlns="http://www.w3.org/2000/svg" width="20" height="20" viewBox="0 0 20 20"><defs><style>.a,.b{fill:#fff;stroke:#fff;}.a{opacity:0;}.b{stroke-width:0.3px;}.c{stroke:none;}.d{fill:none;}</style></defs><g transform="translate(-3822 -2664)"><g class="a" transform="translate(3822 2664)"><rect class="c" width="20" height="20"/><rect class="d" x="0.5" y="0.5" width="19" height="19"/></g><g transform="translate(3824.676 2664.736)"><path class="b" d="M114.438,6.664h-.185V4.935a4.648,4.648,0,1,0-9.278,0V6.664h-.138a2.581,2.581,0,0,0-2.523,2.6v6.664a2.551,2.551,0,0,0,2.523,2.6h9.6a2.581,2.581,0,0,0,2.523-2.6V9.264A2.6,2.6,0,0,0,114.438,6.664ZM105.76,4.9a3.864,3.864,0,1,1,7.708,0V6.633h-7.755V4.9Zm10.432,11.023a1.81,1.81,0,0,1-1.739,1.853h-9.616a1.81,1.81,0,0,1-1.739-1.853V9.264a1.81,1.81,0,0,1,1.739-1.853h9.616a1.81,1.81,0,0,1,1.739,1.853v6.664Z" transform="translate(-102.314)"/><path class="b" d="M447.617,567.456a1.422,1.422,0,0,0-1.391,1.449,1.456,1.456,0,0,0,.725,1.273v2.39a.725.725,0,0,0,1.45,0v-2.39a1.456,1.456,0,0,0,.725-1.273A1.665,1.665,0,0,0,447.617,567.456Z" transform="translate(-440.381 -558.066)"/></g></g></svg>