<svg xmlns="http://www.w3.org/2000/svg" width="19.958" height="19.958" viewBox="0 0 19.958 19.958"><defs><style>.a,.b{fill:#fff;stroke:#fff;}.a{opacity:0;}.b{stroke-width:0.2px;}.c{stroke:none;}.d{fill:none;}</style></defs><g transform="translate(-3822 -2632)"><g class="a" transform="translate(3822 2632)"><rect class="c" width="19.958" height="19.958"/><rect class="d" x="0.5" y="0.5" width="18.958" height="18.958"/></g><path class="b" d="M118.069,135.894a4.247,4.247,0,0,0,2.046-3.619,4.323,4.323,0,0,0-8.645,0,4.257,4.257,0,0,0,2.046,3.619,9.057,9.057,0,0,0-6.849,8.73.48.48,0,0,0,.961,0,8.166,8.166,0,0,1,16.33,0,.48.48,0,0,0,.961,0,9.057,9.057,0,0,0-6.849-8.73Zm-5.639-3.619a3.362,3.362,0,1,1,3.362,3.325A3.347,3.347,0,0,1,112.431,132.275Z" transform="translate(3716.186 2505.43)"/></g></svg>